<svg width="58" height="58" viewBox="0 0 58 58" fill="none" xmlns="http://www.w3.org/2000/svg">
<rect x="2.5" y="2.5" width="53" height="53" rx="5.5" stroke="#202020" stroke-width="5"/>
<path d="M16.2188 17.25V40H10.7344V17.25H16.2188ZM29.7969 17.25L20.9844 28.7812L15.8281 34.4219L14.8281 29.3906L18.125 24.3906L23.0312 17.25H29.7969ZM23.3125 40L17.4375 29.75L21.7031 26.6094L29.7969 40H23.3125ZM40.2812 32.2812H34.625V28.0469H40.2812C41.0521 28.0469 41.6771 27.9167 42.1562 27.6562C42.6354 27.3958 42.9844 27.0365 43.2031 26.5781C43.4323 26.1094 43.5469 25.5833 43.5469 25C43.5469 24.375 43.4323 23.7969 43.2031 23.2656C42.9844 22.7344 42.6354 22.3073 42.1562 21.9844C41.6771 21.651 41.0521 21.4844 40.2812 21.4844H36.6875V40H31.2031V17.25H40.2812C42.1042 17.25 43.6719 17.5833 44.9844 18.25C46.3073 18.9167 47.3229 19.8333 48.0312 21C48.7396 22.1562 49.0938 23.4792 49.0938 24.9688C49.0938 26.4375 48.7396 27.7188 48.0312 28.8125C47.3229 29.9062 46.3073 30.7604 44.9844 31.375C43.6719 31.9792 42.1042 32.2812 40.2812 32.2812Z" fill="#202020"/>
	<style>
    :root{filter:invert(100%)}
  </style>
</svg>
